#!OML:ASF F:\VICON\USERDATA\INSTALL\rory3\rory3.ASF
:FULLY-SPECIFIED
:DEGREES
28
root -0.3253528774313832 17.7596465885797 -0.8680750326311344 4.645920757687942 2.0090754508048945 -0.3442770320628026
lfemur 4.120622730329947 0.15282050395425067 -25.358424134777536
ltibia 36.49181665284297
lfoot -6.36521235518343 -3.323105978094359
ltoes -26.166695515306408
rfemur -48.05827061055797 -2.621666425254219 23.30129323598869
rtibia 89.97444863766489
rfoot -0.36264835613008195 -4.135320817815188
rtoes 0.8656015988374639
lowerback 16.07920265833863 -0.6231783647066784 -3.1438758937124733
upperback -1.1676763890900992 -1.2505654364801821 1.464532646469371
thorax -10.205893104336056 -0.3665359468765049 4.317416650671311
lowerneck -22.618413775819636 -3.027438018004542 -1.4142392649053874
upperneck 13.197522054719684 -4.249462526105708 3.0453929542297744
head 7.739139961534736 -1.7495767285148944 0.7705151819355031
lclavicle -2.2510668899748727e-15 1.4041799799004042e-15
lhumerus -33.85285442981128 -19.386885648218875 97.20763170842697
lradius 120.21829325091721
lwrist 37.014666880918035
lhand -24.57351280678633 1.8821512974690688
lfingers 7.12502
lthumb 1.9233871256848625 31.833777359609567
rclavicle -2.2510668899748727e-15 1.4041799799004042e-15
rhumerus -60.89221517657939 7.189634668699631 -99.64971278860938
rradius 107.65671124458682
rwrist -13.49408141730135
rhand -15.41245825067956 39.6512143142905
rfingers 7.12502
rthumb 10.766556889885141 9.664970614667922
29
root -0.30413891154062217 18.00341672293531 0.3159219104888358 4.957263174292942 1.1686997002816633 -0.7714940954507705
lfemur 8.314562278506921 0.2667534034183077 -24.901276984945383
ltibia 33.54385626150553
lfoot 0.49563355436914874 -6.032344824062389
ltoes -28.189932121025194
rfemur -48.74019453251723 -1.2526834792888941 24.147475638931247
rtibia 81.51775030281411
rfoot -1.0136480769160485 -3.714142179763131
rtoes -2.527556320829675
lowerback 15.596084231111533 -0.8427554500907821 -2.7565743843897605
upperback -1.3992842517458035 -1.4370194835771972 1.895253670623702
thorax -10.096549553307387 -0.460250273050571 4.61541058910705
lowerneck -22.51296633574758 -2.7087243191562815 -1.4387722832604888
upperneck 13.470757008069102 -3.7697101596364595 2.7677973941214846
head 7.794321437676932 -1.5476299446773778 0.705384108369773
lclavicle -1.8762915877783165e-15 1.6761258444491363e-15
lhumerus -33.70102879775246 -18.747643022768152 96.52352095845207
lradius 122.1196908928031
lwrist 37.4445066279373
lhand -24.26581543022291 2.1847134779028536
lfingers 7.12502
lthumb 2.220511118150154 32.12996300078579
rclavicle -1.8762915877783165e-15 1.6761258444491363e-15
rhumerus -62.34262885452887 6.933010400432781 -98.92978278197215
rradius 108.53951440392399
rwrist -13.290248992121061
rhand -15.386411139444403 39.677575427779956
rfingers 7.12502
rthumb 10.791624225577964 9.671054049469538
30
root -0.2720545446563735 18.225600150344174 1.7661645277652784 5.090998147318167 0.415955182642897 -1.088358891351285
lfemur 11.411747350772261 0.22844554526647992 -24.926599339799903
ltibia 31.38376437236011
lfoot 8.414119793819248 -9.098376258173477
ltoes -27.507019463375997
rfemur -48.16111722162509 0.2048683516659522 24.900024891178383
rtibia 70.76931157815196
rfoot -0.5477047805699371 -2.9532322754739675
rtoes -5.968044117486738
lowerback 15.227446817724017 -1.0285645445378253 -2.4114608212708735
upperback -1.6034700083817488 -1.5992212830238661 2.219010285197642
thorax -10.008075280892038 -0.5426791676493331 4.770221333675933
lowerneck -22.33184792967721 -2.512130448847004 -1.5706965848416103
upperneck 13.737718462596016 -3.43803257145081 2.6163233627564355
head 7.843381091688547 -1.4127201884600866 0.6923136007349432
lclavicle -1.824139991488008e-15 1.7138643606213112e-15
lhumerus -33.79986691900916 -18.71387205007064 95.88117200829615
lradius 123.7847934142279
lwrist 37.22050317363488
lhand -23.77902483645518 2.214864403150211
lfingers 7.12502
lthumb 2.6906113870395787 32.15235670177853
rclavicle -1.824139991488008e-15 1.7138643606213112e-15
rhumerus -63.86000849789277 6.509587854199362 -98.29301560428752
rradius 109.77253683527053
rwrist -12.730815136871712
rhand -15.462706257456531 39.70190707816629
rfingers 7.12502
rthumb 10.717924631470053 9.656320391503018
31
root -0.23557451510510674 18.397168588656175 4.758001235515064 5.439301335177925 -0.2825948716243726 -1.248843926423418
lfemur 13.438603936423222 -0.5590674302372989 -24.867660725649642
ltibia 30.742085514851336
lfoot 15.32538686720775 -11.515649020820774
ltoes -24.544334505590037
rfemur -46.937897363528705 1.2051058293194732 25.576532164623384
rtibia 60.73438372010403
rfoot -0.22945712880639757 -1.7646218831325955
rtoes -9.255786846856273
lowerback 14.892632894747589 -1.201927361732663 -1.9609563869695015
upperback -1.788225065278667 -1.733672577342186 2.4669203555378805
thorax -9.930758623190165 -0.6180556848154622 4.781539209755554
lowerneck -22.114557594291636 -2.2870749604995666 -1.6680317728077951
upperneck 14.013911206209741 -3.068740820198894 2.4026177622824054
head 7.89600642888954 -1.265689088605198 0.6583753384389441
lclavicle -1.57154412517585e-15 1.897087421564628e-15
lhumerus -34.021512874761214 -18.81308063008802 95.35928458912682
lradius 124.44617525277661
lwrist 36.57814394382949
lhand -23.366286091410178 2.104508334660042
lfingers 7.12502
lthumb 3.0892390151965055 32.04188977718174
rclavicle -1.57154412517585e-15 1.8970874215646282e-15
rhumerus -64.80619155365113 5.671453459192858 -97.45743903057254
rradius 110.750686151271
rwrist -12.249968267836701
rhand -15.527658702966663 39.8510808841581
rfingers 7.12502
rthumb 10.6552384873019 9.76265134083979
